<?xml version="1.0" encoding="iso-8859-1"?>
<!DOCTYPE svg PUBLIC "-//W3C//DTD SVG 1.1//EN" "http://www.w3.org/Graphics/SVG/1.1/DTD/svg11.dtd">
<svg version="1.1" id="Capa_1" xmlns="http://www.w3.org/2000/svg" xmlns:xlink="http://www.w3.org/1999/xlink" x="0px" y="0px"
	 width="792px" height="792px" viewBox="0 0 792 792" xml:space="preserve" fill="#BF1335">
<g>
	<path d="M641.159,0H150.841c-15.628,0.025-28.334,12.771-28.334,28.335V792l16.47-6.877l4.095-1.722l12.438-5.167l233.76-97.469
		l6.736-2.781l6.736,2.781l233.747,97.469l16.56,6.89l16.444,6.863V28.335C669.468,12.745,656.761,0.025,641.159,0z
		 M518.723,338.858l-50.316,52.511l10.678,71.979l3.292,22.173l-20.222-9.746l-65.484-31.627l-65.142,32.379l-20.106,9.977
		l3.049-22.224l9.862-72.068l-50.903-51.924l-15.705-16.037l22.084-3.98l71.545-12.911l33.655-64.465l10.385-19.89l10.602,19.788
		l34.42,64.057l71.699,12.043l22.135,3.738L518.723,338.858z M639.819,89.202H152.206l0.013-59.489h487.6V89.202z"/>
</g>
</svg>
