<svg xmlns="http://www.w3.org/2000/svg" width="792" height="792" xml:space="preserve" fill="#BF1335"><path d="M641.159 0H150.841c-15.628.025-28.334 12.771-28.334 28.335V792l16.47-6.877 4.095-1.722 12.438-5.167 233.76-97.469 6.736-2.781 6.736 2.781 233.747 97.469 16.56 6.89 16.444 6.863V28.335C669.468 12.745 656.761.025 641.159 0zM518.723 338.858l-50.316 52.511 10.678 71.979 3.292 22.173-20.222-9.746-65.484-31.627-65.142 32.379-20.106 9.977 3.049-22.224 9.862-72.068-50.903-51.924-15.705-16.037 22.084-3.98 71.545-12.911 33.655-64.465 10.385-19.89 10.602 19.788 34.42 64.057 71.699 12.043 22.135 3.738-15.528 16.227zM639.819 89.202H152.206l.013-59.489h487.6v59.489z"/></svg>