<svg xmlns="http://www.w3.org/2000/svg" width="573.75" height="573.75" xml:space="preserve" fill="#FFF"><path d="M219.938 283.05V0h-76.5v248.625l22.95 70.763c15.3-15.3 34.424-28.688 53.55-36.338zM286.875 286.875c-78.413 0-143.438 65.025-143.438 143.438S208.462 573.75 286.875 573.75c78.412 0 143.438-65.025 143.438-143.438s-65.026-143.437-143.438-143.437zm57.375 229.5-57.375-40.162-53.55 40.162 15.3-66.938-47.812-47.812h66.938l19.125-57.375L306 401.625h66.938l-47.812 47.812 19.124 66.938zM334.688 275.4V0h-95.625v275.4c15.3-3.825 30.6-7.65 47.812-7.65 17.213 0 32.513 1.913 47.813 7.65zM353.812 0v283.05c19.125 9.562 38.25 22.95 53.55 38.25l22.95-72.675V0h-76.5z"/></svg>